<svg xmlns="http://www.w3.org/2000/svg" width="16" height="16" viewBox="0 0 16 16">
<style type="text/css">
    .icon-canvas-transparent{opacity:0;fill:#F6F6F6;} 
    .icon-vs-out{opacity:0;fill:#F6F6F6;} 
    .icon-vs-bg{fill:#656565;} 
    .icon-vs-fg{fill:#F0EFF1;}
</style>
    <svg id="doc">
        <path class="icon-canvas-transparent" d="M16 16h-16v-16h16v16z" id="canvas"/>
        <path class="icon-vs-out" d="M4 15c-.97 0-2-.701-2-2v-10c0-1.299 1.03-2 2-2h6.061l3.939 3.556v8.444c0 .97-.701 2-2 2h-8z" id="outline"/>
        <path class="icon-vs-bg" d="M9.641,2H3.964C3.964,2,3,2,3,3c0,0.805,0,7.442,0,10c0,1,0.965,1,0.965,1s7,0,8,0S13,13,13,13V5L9.641,2zM12,13H4V3h5v3h3V13z" id="iconBg"/><path class="icon-vs-fg" d="M4 3h5v3h3v7h-8v-10z" id="iconFg"/>
    </svg>
    <svg id="zip" x="2">
        <g stroke="none" stroke-width="1" fill="none" fill-rule="evenodd">
            <path class="icon-vs-bg" d="M5,4 L5,3 L6,3 L6,4 L5,4 L5,4 Z M4,4 L5,4 L5,5 L4,5 L4,4 L4,4 Z M5,6 L5,5 L6,5 L6,6 L5,6 L5,6 Z M4,6 L5,6 L5,7 L4,7 L4,6 L4,6 Z M5,8 L5,7 L6,7 L6,8 L5,8 L5,8 Z M4,9.28 C3.38491093,9.63510459 3.00428692,10.2897779 3,11 L3,12 L7,12 L7,11 C7,9.8954305 6.1045695,9 5,9 L5,8 L4,8 L4,9.28 L4,9.28 Z M6,10 L6,11 L4,11 L4,10 L6,10 L6,10 Z" id="Shape"/>
        </g>
    </svg>
</svg>